<?xml version="1.0" encoding="UTF-8"?>
<!DOCTYPE svg PUBLIC "-//W3C//DTD SVG 1.0//EN" "http://www.w3.org/TR/2001/REC-SVG-20010904/DTD/svg10.dtd">
<!-- Creator: CorelDRAW X8 -->
<svg xmlns="http://www.w3.org/2000/svg" xml:space="preserve" width="215px" height="200px" version="1.0" style="shape-rendering:geometricPrecision; text-rendering:geometricPrecision; image-rendering:optimizeQuality; fill-rule:evenodd; clip-rule:evenodd"
viewBox="0 0 22301 20659"
 xmlns:xlink="http://www.w3.org/1999/xlink">
 <defs>
  <style type="text/css">
   <![CDATA[
    .fil0 {fill:url(#id0)}
   ]]>
  </style>
  <linearGradient id="id0" gradientUnits="userSpaceOnUse" x1="12302.1" y1="54.72" x2="9988.89" y2="20604.6">
   <stop offset="0" style="stop-opacity:1; stop-color:#2E602B"/>
   <stop offset="1" style="stop-opacity:1; stop-color:#6EB535"/>
  </linearGradient>
 </defs>
 <g id="Слой_x0020_1">
  <metadata id="CorelCorpID_0Corel-Layer"/>
  <path class="fil0" d="M20057 13153l2244 0 -4338 7506 -11974 0 -5989 -10327 5989 -10332 11974 0 4228 7367 -2158 0 -3174 -5502 -9770 0 -4826 8467 4816 8437 9750 0 3228 -5616zm-9178 -2876c0,-288 105,-542 309,-751 204,-209 452,-313 741,-313 288,0 537,104 746,313 214,214 319,463 319,751 0,289 -105,533 -319,737 -209,209 -458,308 -746,308 -289,0 -537,-104 -741,-308 -204,-204 -309,-448 -309,-737zm-4949 -1785l2129 0 1452 -2478 4865 0 2483 4278 -2483 4269 -4880 0 -1387 -2488 -2209 0 2497 4348 7153 0 3507 -6149 -3507 -6103 -7153 0 -2467 4323z"/>
 </g>
</svg>
